<?xml version="1.0" encoding="utf-8"?>
<!-- Generator: Adobe Illustrator 16.0.0, SVG Export Plug-In . SVG Version: 6.00 Build 0)  -->
<!DOCTYPE svg PUBLIC "-//W3C//DTD SVG 1.1//EN" "http://www.w3.org/Graphics/SVG/1.1/DTD/svg11.dtd" [
	<!ENTITY ns_extend "http://ns.adobe.com/Extensibility/1.0/">
	<!ENTITY ns_ai "http://ns.adobe.com/AdobeIllustrator/10.0/">
	<!ENTITY ns_graphs "http://ns.adobe.com/Graphs/1.0/">
	<!ENTITY ns_vars "http://ns.adobe.com/Variables/1.0/">
	<!ENTITY ns_imrep "http://ns.adobe.com/ImageReplacement/1.0/">
	<!ENTITY ns_sfw "http://ns.adobe.com/SaveForWeb/1.0/">
	<!ENTITY ns_custom "http://ns.adobe.com/GenericCustomNamespace/1.0/">
	<!ENTITY ns_adobe_xpath "http://ns.adobe.com/XPath/1.0/">
]>
<svg version="1.1" id="Layer_1" xmlns:x="&ns_extend;" xmlns:i="&ns_ai;" xmlns:graph="&ns_graphs;"
	 xmlns="http://www.w3.org/2000/svg" xmlns:xlink="http://www.w3.org/1999/xlink" x="0px" y="0px" width="789.435px"
	 height="261.739px" viewBox="0 0 789.435 261.739" enable-background="new 0 0 789.435 261.739" xml:space="preserve">
<metadata>
	<sfw  xmlns="&ns_sfw;">
		<slices></slices>
		<sliceSourceBounds  height="262.794" width="790.49" x="130.559" y="-421.875" bottomLeftOrigin="true"></sliceSourceBounds>
	</sfw>
</metadata>
<rect display="none" fill="#3695BA" stroke="#3695BA" stroke-width="1.0554" stroke-miterlimit="10" width="789.435" height="261.739"/>
<g>
	<path fill="#F9F9F9" d="M24.629,146.727l21.094-2.051c1.269,7.081,3.845,12.281,7.727,15.601c3.882,3.321,9.119,4.98,15.71,4.98
		c6.982,0,12.243-1.476,15.784-4.431c3.54-2.954,5.31-6.409,5.31-10.364c0-2.538-0.745-4.699-2.234-6.482
		c-1.49-1.782-4.09-3.333-7.8-4.651c-2.54-0.879-8.326-2.441-17.358-4.688c-11.622-2.88-19.775-6.42-24.463-10.62
		c-6.592-5.907-9.888-13.11-9.888-21.606c0-5.468,1.549-10.583,4.651-15.344c3.1-4.761,7.568-8.386,13.403-10.876
		c5.834-2.49,12.878-3.735,21.13-3.735c13.477,0,23.621,2.955,30.432,8.862c6.812,5.909,10.388,13.795,10.73,23.657l-21.68,0.952
		c-0.928-5.517-2.918-9.485-5.969-11.902c-3.052-2.417-7.63-3.625-13.733-3.625c-6.299,0-11.231,1.294-14.795,3.882
		c-2.296,1.661-3.442,3.882-3.442,6.665c0,2.54,1.073,4.713,3.223,6.519c2.734,2.296,9.375,4.688,19.922,7.178
		s18.347,5.066,23.401,7.727c5.054,2.662,9.009,6.299,11.865,10.913s4.285,10.316,4.285,17.102c0,6.152-1.71,11.915-5.127,17.285
		c-3.418,5.372-8.252,9.364-14.502,11.975c-6.251,2.611-14.039,3.918-23.364,3.918c-13.575,0-24-3.137-31.274-9.412
		C30.39,167.882,26.044,158.738,24.629,146.727z"/>
	<path fill="#F9F9F9" d="M130.391,181.663V74.29h21.094l43.945,71.704V74.29h20.142v107.373h-21.753l-43.286-70.02v70.02H130.391z"
		/>
</g>
<g>
	<ellipse fill="#231F20" cx="278.306" cy="151.151" rx="26.5" ry="28.824"/>
</g>
<g>
	
		<ellipse transform="matrix(0.9979 0.0643 -0.0643 0.9979 10.5086 -25.3981)" fill="#231F20" cx="400.146" cy="150.689" rx="26.5" ry="28.825"/>
</g>
<g>
	<path fill="#F9F9F9" d="M432.565,99.037c-9.142-9.142-21.297-14.177-34.225-14.177c-11.828,0-23.125,4.079-31.761,11.998
		c-0.669,0.614-1.637,0.75-2.688,0.665c-3.835-0.636-7.806-1.136-11.888-1.482c-0.316-0.027-1.31-0.588-1.5-0.833
		c-2.818-3.646-7.233-5.996-12.198-5.996c-0.014,0-0.029,0.001-0.044,0.001c-0.015,0-0.03-0.001-0.045-0.001
		c-4.964,0-9.38,2.349-12.197,5.996c-0.191,0.247-1.184,0.807-1.501,0.833c-4.081,0.347-8.051,0.846-11.887,1.482
		c-1.051,0.085-2.019-0.05-2.687-0.665c-8.637-7.919-19.933-11.998-31.76-11.998c-12.929,0-25.083,5.035-34.226,14.177
		c-9.142,9.142-14.176,21.296-14.176,34.225s5.034,25.083,14.176,34.225c9.143,9.142,21.297,14.176,34.226,14.176
		c12.377,0,24.043-4.617,33.038-13.033c6.21-5.623,10.975-12.886,13.603-21.294c1.092-3.82,6.507-6.458,13.437-6.462
		c6.931,0.005,12.345,2.642,13.437,6.462c2.628,8.409,7.393,15.671,13.603,21.294c8.995,8.416,20.662,13.033,33.04,13.033
		c12.928,0,25.082-5.034,34.224-14.176c9.142-9.142,14.177-21.297,14.177-34.225S441.708,108.179,432.565,99.037z M278.185,170.92
		c-20.74,0-37.553-16.813-37.553-37.552c0-20.74,16.813-37.552,37.553-37.552c20.739,0,37.552,16.813,37.552,37.552
		C315.736,154.107,298.923,170.92,278.185,170.92z M398.341,170.92c-20.74,0-37.552-16.813-37.552-37.552
		c0-20.74,16.813-37.552,37.552-37.552c20.739,0,37.552,16.813,37.552,37.552C435.893,154.107,419.08,170.92,398.341,170.92z"/>
</g>
<g>
	<path fill="#F9F9F9" d="M458.286,181.663V74.29h34.791c13.184,0,21.777,0.538,25.781,1.611c6.152,1.611,11.303,5.116,15.453,10.51
		c4.15,5.396,6.227,12.367,6.227,20.911c0,6.592-1.197,12.134-3.59,16.626c-2.393,4.493-5.432,8.02-9.117,10.583
		c-3.688,2.563-7.436,4.261-11.244,5.09c-5.176,1.025-12.67,1.538-22.484,1.538h-14.137v40.503H458.286z M479.966,92.454v30.469
		h11.865c8.545,0,14.258-0.561,17.139-1.685c2.881-1.123,5.139-2.88,6.775-5.273c1.635-2.392,2.453-5.175,2.453-8.35
		c0-3.906-1.146-7.128-3.441-9.668c-2.297-2.538-5.201-4.125-8.717-4.761c-2.588-0.487-7.789-0.732-15.6-0.732H479.966z"/>
	<path fill="#F9F9F9" d="M586.534,181.663v-45.19L547.202,74.29h25.416l25.268,42.48l24.756-42.48h24.977l-39.479,62.329v45.044
		H586.534z"/>
	<path fill="#F9F9F9" d="M653.989,128.636c0-10.937,1.637-20.116,4.908-27.539c2.441-5.468,5.773-10.375,9.998-14.722
		c4.223-4.345,8.85-7.568,13.879-9.668c6.689-2.831,14.402-4.248,23.145-4.248c15.82,0,28.479,4.907,37.977,14.722
		c9.496,9.814,14.244,23.463,14.244,40.942c0,17.334-4.713,30.897-14.135,40.686c-9.424,9.791-22.021,14.685-37.793,14.685
		c-15.967,0-28.664-4.871-38.086-14.612C658.702,159.141,653.989,145.727,653.989,128.636z M676.329,127.903
		c0,12.158,2.807,21.375,8.422,27.649c5.615,6.275,12.744,9.412,21.387,9.412s15.734-3.113,21.277-9.338
		c5.541-6.226,8.313-15.564,8.313-28.015c0-12.305-2.697-21.484-8.092-27.539c-5.396-6.054-12.563-9.082-21.498-9.082
		s-16.139,3.065-21.605,9.192C679.063,106.31,676.329,115.551,676.329,127.903z"/>
</g>
<g>
	<ellipse fill="#EC2A2D" cx="338.028" cy="222.888" rx="5.791" ry="5.996"/>
</g>
<g>
	<path fill="#080808" d="M320.023,228.448c-0.322,0-0.644-0.008-0.968-0.025c-10.239-0.56-18.567-9.382-18.566-19.668l5.867,0.001
		c-0.001,7.1,5.96,13.423,13.018,13.808c7.031,0.382,13.686-5.665,14.55-13.203l5.829,0.669
		C338.565,220.384,329.823,228.448,320.023,228.448z"/>
</g>
<g>
	<path fill="#080808" d="M355.898,228.375c-10.818,0-19.62-8.41-19.62-18.747h5.712c0,7.187,6.239,13.034,13.908,13.034
		c7.409,0,13.908-6.533,13.908-13.981h5.712C375.518,219.355,366.533,228.375,355.898,228.375z"/>
</g>
<g>
	<path fill="#080808" d="M350.162,189.419c-3.701-1.581-8.382-1.354-12-1.315c-3.621-0.039-8.301-0.265-12.001,1.315
		c-5.04,2.152-8.225,6.845-4.04,11.03c8.956,10.432,15.573,12.12,16.026,12.226l0.002,0.006c0,0,0.007-0.002,0.014-0.002
		c0.005,0,0.012,0.002,0.012,0.002l0.001-0.006c0.454-0.105,7.071-1.794,16.026-12.226
		C360.254,194.396,353.332,190.773,350.162,189.419z"/>
</g>
</svg>
